HIERARCHY
ROOT Hips
{
	OFFSET 0.00 0.00 0.00
	CHANNELS 6 Xposition Yposition Zposition Yrotation Xrotation Zrotation
	JOINT LHipJoint
	{
		OFFSET	0.0000	0.0000	0.0000
		CHANNELS 3 Yrotation Xrotation Zrotation
		JOINT LeftUpLeg
		{
			OFFSET	1.0138	-0.0809	-0.0827
			CHANNELS 3 Yrotation Xrotation Zrotation
			JOINT LeftLeg
			{
				OFFSET	0.4110	-3.9095	0.3245
				CHANNELS 3 Yrotation Xrotation Zrotation
				JOINT LeftFoot
				{
					OFFSET	0.3810	-4.0555	-0.1470
					CHANNELS 3 Yrotation Xrotation Zrotation
					JOINT LeftToeBase
					{
						OFFSET	0.1396	-0.4462	1.3079
						CHANNELS 3 Yrotation Xrotation Zrotation
						End Site
						{
							OFFSET 0.0161 -0.0248 0.1809
						}
					}
				}
			}
		}
	}
	JOINT LowerBack
	{
		OFFSET	0.0000	0.7977	-0.3873
		CHANNELS 3 Yrotation Xrotation Zrotation
		JOINT Spine
		{
			OFFSET	0.0000	1.4131	0.1715
			CHANNELS 3 Yrotation Xrotation Zrotation
			JOINT Spine1
			{
				OFFSET	0.0000	1.4392	-0.1032
				CHANNELS 3 Yrotation Xrotation Zrotation
				JOINT LeftShoulder
				{
					OFFSET	0.2274	1.0382	0.4032
					CHANNELS 3 Yrotation Xrotation Zrotation
					JOINT LeftArm
					{
						OFFSET	1.4730	-0.2267	-0.0231
						CHANNELS 3 Yrotation Xrotation Zrotation
						JOINT LeftForeArm
						{
							OFFSET	1.6131	-1.8059	0.0081
							CHANNELS 3 Yrotation Xrotation Zrotation
							JOINT LeftHand
							{
								OFFSET	1.2197	-1.2423	1.6317
								CHANNELS 3 Yrotation Xrotation Zrotation
								JOINT LThumb
								{
									OFFSET	0.0109	-0.0753	0.4387
									CHANNELS 3 Yrotation Xrotation Zrotation
									End Site
									{
										OFFSET -0.2090 -0.0868 0.2097
									}
								}
								JOINT LeftFingerBase
								{
									OFFSET	0.1071	-0.1567	0.2607
									CHANNELS 3 Yrotation Xrotation Zrotation
									JOINT LeftHandFinger1
									{
										OFFSET	0.1706	-0.2492	0.6830
										CHANNELS 3 Yrotation Xrotation Zrotation
										End Site
										{
											OFFSET 0.0335 -0.1507 0.2071
										}
									}
								}
							}
						}
					}
				}
				JOINT Neck
				{
					OFFSET	0.0000	1.7498	0.2381
					CHANNELS 3 Yrotation Xrotation Zrotation
					JOINT Neck1
					{
						OFFSET	0.0000	0.5043	0.1959
						CHANNELS 3 Yrotation Xrotation Zrotation
						JOINT Head
						{
							OFFSET	0.0000	0.5044	0.1959
							CHANNELS 3 Yrotation Xrotation Zrotation
							End Site
							{
								OFFSET 0.0000 1.4798 -0.0693
							}
						}
					}
				}
				JOINT RightShoulder
				{
					OFFSET	-0.2274	1.0382	0.4032
					CHANNELS 3 Yrotation Xrotation Zrotation
					JOINT RightArm
					{
						OFFSET	-1.4730	-0.2267	-0.0231
						CHANNELS 3 Yrotation Xrotation Zrotation
						JOINT RightForeArm
						{
							OFFSET	-1.6131	-1.8059	0.0081
							CHANNELS 3 Yrotation Xrotation Zrotation
							JOINT RightHand
							{
								OFFSET	-1.2197	-1.2423	1.6317
								CHANNELS 3 Yrotation Xrotation Zrotation
								JOINT RThumb
								{
									OFFSET	-0.0109	-0.0753	0.4387
									CHANNELS 3 Yrotation Xrotation Zrotation
									End Site
									{
										OFFSET 0.2090 -0.0868 0.2097
									}
								}
								JOINT RightFingerBase
								{
									OFFSET	-0.1071	-0.1567	0.2607
									CHANNELS 3 Yrotation Xrotation Zrotation
									JOINT RightHandFinger1
									{
										OFFSET	-0.1706	-0.2492	0.6830
										CHANNELS 3 Yrotation Xrotation Zrotation
										End Site
										{
											OFFSET -0.0335 -0.1507 0.2071
										}
									}
								}
							}
						}
					}
				}
			}
		}
	}
	JOINT RHipJoint
	{
		OFFSET	0.0000	0.0000	0.0000
		CHANNELS 3 Yrotation Xrotation Zrotation
		JOINT RightUpLeg
		{
			OFFSET	-1.0138	-0.0809	-0.0827
			CHANNELS 3 Yrotation Xrotation Zrotation
			JOINT RightLeg
			{
				OFFSET	-0.4110	-3.9095	0.3245
				CHANNELS 3 Yrotation Xrotation Zrotation
				JOINT RightFoot
				{
					OFFSET	-0.3810	-4.0555	-0.1470
					CHANNELS 3 Yrotation Xrotation Zrotation
					JOINT RightToeBase
					{
						OFFSET	-0.1396	-0.4462	1.3079
						CHANNELS 3 Yrotation Xrotation Zrotation
						End Site
						{
							OFFSET -0.0161 -0.0248 0.1809
						}
					}
				}
			}
		}
	}
}
MOTION
Frames: 16
Frame Time: 0.0333333
-0.0325 8.4690 0.0788 -2.3484 -5.5848 -3.1348 0.0000 -0.0000 0.0000 13.2498 -6.8141 -2.3402 14.2968 26.1886 10.9386 24.5274 -14.4412 -7.8440 0.0000 -4.1750 0.0000 0.0000 -0.0000 0.0000 0.6919 3.7569 -0.0098 1.3957 7.5191 -0.2793 -1.2075 0.6697 7.0250 -15.0844 -8.9711 5.8896 -22.5578 -22.1626 2.7216 31.8618 0.5482 -61.1316 35.4809 3.4899 17.6977 -20.0679 30.1485 -23.1688 -16.8877 6.6445 -11.4276 -0.2202 4.2441 -3.9611 -0.2202 4.2442 -3.9611 -3.0480 -2.0335 -1.0037 -1.7134 -0.0303 -11.3143 31.0623 -4.2069 19.1740 10.1052 -9.9601 0.9903 -23.5698 8.2274 37.0276 -32.4824 0.7773 -15.2444 23.5952 31.5578 26.4175 13.5060 3.7629 8.5279 0.0000 -0.0000 0.0000 -6.8581 -6.4489 3.2241 -12.4106 18.3563 -6.7266 -10.8454 -5.6840 4.4922 -0.0000 -4.3589 -0.0000 
-0.0826 8.4731 0.0753 -1.9054 -5.8380 -3.1382 0.0000 -0.0000 0.0000 13.3774 -6.6441 -1.8800 14.2660 25.9805 10.8850 23.7629 -14.0978 -7.8213 0.0000 -4.2531 -0.0000 0.0000 -0.0000 0.0000 0.7113 3.9746 0.1973 1.4488 7.9517 0.1599 -1.4088 0.6871 7.1875 -19.7671 0.9009 11.3286 -27.1330 -26.0013 4.6676 30.5471 1.4977 -54.1189 35.4809 3.4899 17.6977 -21.1156 30.5767 -24.1264 -17.2534 6.9425 -11.7452 -0.0741 4.1067 -4.0899 -0.0741 4.1066 -4.0899 -1.2141 -2.4277 -1.9856 -0.9525 0.0351 -10.7453 35.5324 -2.2399 18.0785 6.8014 -6.3876 1.5264 -24.8615 10.4477 28.8550 -32.4824 0.7773 -15.2444 26.6206 32.5558 29.2007 13.9979 4.2093 8.9491 0.0000 -0.0000 0.0000 -6.8250 -6.1194 3.4922 -12.4443 18.4976 -6.6753 -11.3321 -5.9808 4.2742 0.0000 -4.3603 0.0000 
-0.1383 8.4783 0.0738 -1.4213 -6.0839 -3.1818 0.0000 -0.0000 0.0000 13.5206 -6.4797 -1.3473 14.2179 25.7285 10.8356 22.9280 -13.7131 -7.8157 -0.0000 -4.3234 -0.0000 0.0000 -0.0000 0.0000 0.7374 4.1908 0.4401 1.5198 8.3806 0.6723 -1.4317 0.6823 7.4467 -24.8335 10.5354 14.9071 -30.4544 -28.5506 6.2436 28.2180 2.2451 -46.2037 35.4809 3.4899 17.6977 -22.1491 30.9795 -25.0725 -17.6117 7.2310 -12.0568 0.2318 3.9002 -4.3613 0.2318 3.9003 -4.3613 0.9235 -2.6768 -2.6700 0.1170 0.1216 -9.9344 37.6335 -1.1886 18.1429 2.7121 -1.8589 1.9039 -23.9098 12.5245 22.7006 -32.4825 0.7773 -15.2444 24.9162 32.0126 27.6316 13.5488 3.8020 8.5645 0.0000 -0.0000 0.0000 -6.7282 -5.7210 3.8530 -12.4727 18.5505 -6.6256 -11.9294 -6.2718 4.0482 0.0000 -4.3544 -0.0000 
-0.1990 8.4840 0.0728 -0.8253 -6.2607 -3.2642 0.0000 -0.0000 0.0000 13.6620 -6.4099 -0.7636 14.1414 25.4453 10.7799 21.9933 -13.2820 -7.8003 0.0000 -4.3763 0.0000 0.0000 -0.0000 0.0000 0.7530 4.3886 0.7019 1.5725 8.7720 1.2231 -1.4363 0.6695 7.8729 -31.2606 19.0588 16.4129 -31.1441 -29.0550 6.5867 25.2742 3.3276 -38.6945 35.4808 3.4899 17.6977 -22.7611 31.2090 -25.6334 -17.8228 7.3994 -12.2406 0.6164 3.6064 -4.7010 0.6164 3.6063 -4.7010 2.9515 -2.7304 -3.0234 1.3242 0.2251 -8.7551 37.2224 -0.8332 18.7568 -1.6924 3.0682 1.9476 -21.0525 14.0964 18.6504 -32.4824 0.7773 -15.2444 21.7854 30.8854 24.7574 12.6408 2.9610 7.7895 0.0000 -0.0000 0.0000 -6.5662 -5.3183 4.3062 -12.4900 18.5272 -6.5688 -12.7149 -6.5612 3.8252 -0.0000 -4.3449 0.0000 
-0.2628 8.4899 0.0718 -0.0763 -6.3247 -3.3374 0.0000 -0.0000 0.0000 13.7613 -6.4663 -0.2124 14.0546 25.1128 10.7243 20.9467 -12.7981 -7.7549 0.0000 -4.4144 -0.0000 0.0000 -0.0000 0.0000 0.7432 4.5554 0.9471 1.5741 9.1019 1.7410 -1.6099 0.6692 8.4410 -39.0401 25.4484 14.8803 -28.7700 -27.2828 5.4283 22.7171 5.0379 -32.9338 35.4809 3.4899 17.6977 -22.8084 31.2264 -25.6767 -17.8391 7.4124 -12.2548 0.9418 3.2294 -4.9468 0.9418 3.2294 -4.9468 4.5461 -2.6144 -3.2500 2.4313 0.3374 -7.1112 34.9295 -0.7332 19.2887 -6.0877 7.9376 1.6148 -17.9968 14.4441 16.5919 -32.4824 0.7773 -15.2445 19.5315 29.9648 22.6960 11.8890 2.2469 7.1507 0.0000 -0.0000 0.0000 -6.4051 -4.9991 4.7676 -12.4909 18.5009 -6.4795 -13.6611 -6.8792 3.6094 -0.0000 -4.3369 0.0000 
-0.3276 8.4956 0.0713 0.8287 -6.2779 -3.3830 0.0000 -0.0000 0.0000 13.7969 -6.6310 0.2625 13.9573 24.7217 10.6807 19.8058 -12.2653 -7.6824 0.0000 -4.4490 0.0000 0.0000 -0.0000 0.0000 0.7024 4.6929 1.1436 1.5097 9.3740 2.1616 -2.0131 0.6989 8.9813 -46.6642 28.2804 9.7165 -23.8612 -23.2944 3.2477 20.8138 7.2340 -29.2477 35.4808 3.4899 17.6977 -22.5656 31.1364 -25.4542 -17.7554 7.3458 -12.1820 1.0848 2.7914 -4.9300 1.0849 2.7914 -4.9301 5.5821 -2.4133 -3.6633 3.2324 0.4472 -5.0244 31.6442 -0.7525 19.3780 -10.3246 12.4975 0.9466 -16.1139 13.4147 16.0229 -32.4824 0.7773 -15.2444 18.7278 29.6133 21.9625 11.6052 1.9730 6.9102 0.0000 -0.0000 0.0000 -6.2594 -4.7776 5.2097 -12.4847 18.4883 -6.3744 -14.7627 -7.2251 3.4223 0.0000 -4.3313 -0.0000 
-0.3922 8.5014 0.0721 1.8272 -6.1581 -3.4175 0.0000 -0.0000 0.0000 13.7925 -6.8551 0.6873 13.8502 24.2737 10.6398 18.6100 -11.6980 -7.5963 0.0000 -4.4933 0.0000 0.0000 -0.0000 0.0000 0.6314 4.8144 1.2792 1.3799 9.6158 2.4581 -2.4704 0.7492 9.2553 -51.4896 26.3397 2.1328 -16.9354 -16.9447 0.7350 18.5771 9.7074 -26.3355 35.4808 3.4899 17.6977 -22.4430 31.0905 -25.3417 -17.7131 7.3121 -12.1452 0.9984 2.3116 -4.5708 0.9984 2.3117 -4.5709 6.0942 -2.2251 -4.4678 3.5567 0.5403 -2.7250 28.0074 -1.1113 19.1491 -14.2006 16.4899 0.0503 -15.4780 11.7420 15.9606 -32.4824 0.7773 -15.2444 18.9008 29.6900 22.1203 11.6794 2.0448 6.9731 0.0000 -0.0000 0.0000 -6.0540 -4.6015 5.6918 -12.4826 18.4268 -6.3330 -16.0463 -7.5508 3.3024 0.0000 -4.3235 0.0000 
-0.4553 8.5070 0.0744 2.8099 -5.9921 -3.4338 0.0000 -0.0000 0.0000 13.7751 -7.0919 1.0690 13.7349 23.7812 10.5777 17.4547 -11.1189 -7.5141 0.0000 -4.5496 -0.0000 0.0000 -0.0000 0.0000 0.5268 4.9320 1.3535 1.1780 9.8519 2.6287 -2.6405 0.7783 9.1142 -51.5180 19.5991 -6.0267 -7.8689 -7.5525 -1.3754 14.8999 11.7689 -22.3015 35.4809 3.4899 17.6977 -22.7353 31.1994 -25.6097 -17.8139 7.3923 -12.2329 0.7189 1.8041 -3.9132 0.7189 1.8041 -3.9132 6.1674 -2.1226 -5.6230 3.2772 0.6113 -0.6069 24.2684 -2.0727 19.1262 -17.3774 19.6020 -0.8753 -15.4439 10.4706 15.2105 -32.4824 0.7773 -15.2444 19.2279 29.8335 22.4188 11.7972 2.1585 7.0728 0.0000 -0.0000 0.0000 -5.7410 -4.4693 6.2321 -12.4900 18.3129 -6.4200 -17.4338 -7.8296 3.2694 -0.0000 -4.3098 0.0000 
-0.5142 8.5113 0.0775 3.6843 -5.7579 -3.3824 0.0000 -0.0000 0.0000 13.7160 -7.3430 1.3256 13.6205 23.2766 10.5166 16.4873 -10.5510 -7.4690 0.0000 -4.6082 -0.0000 0.0000 -0.0000 0.0000 0.3766 5.0466 1.3660 0.8794 10.0837 2.6737 -2.2803 0.7531 8.5637 -45.6542 9.3769 -14.3213 3.3954 4.9659 -1.8630 11.1116 11.4900 -16.8640 35.4809 3.4899 17.6977 -23.6202 31.5199 -26.4214 -18.1177 7.6328 -12.4977 0.3299 1.2851 -3.0872 0.3299 1.2852 -3.0872 5.8538 -2.1295 -6.8605 2.4159 0.6633 0.9914 20.5233 -3.6165 19.7938 -19.6505 21.7294 -1.6367 -15.6340 10.1762 13.2149 -32.4824 0.7773 -15.2444 19.0949 29.7754 22.2974 11.7384 2.1018 7.0231 0.0000 -0.0000 0.0000 -5.4080 -4.5006 6.7223 -12.5198 18.2888 -6.5926 -18.7364 -8.1087 3.2919 0.0000 -4.2893 -0.0000 
-0.5672 8.5129 0.0806 4.3696 -5.4325 -3.2492 0.0000 -0.0000 0.0000 13.5899 -7.6307 1.4118 13.5199 22.8086 10.5007 15.8298 -10.0229 -7.5029 0.0000 -4.6610 -0.0000 0.0000 -0.0000 0.0000 0.1734 5.1490 1.3199 0.4692 10.2930 2.5994 -1.4894 0.6912 7.6936 -33.3918 -0.7178 -23.3573 15.3902 17.6734 0.2768 9.2197 7.4404 -9.1045 35.4808 3.4899 17.6977 -25.0413 32.0062 -27.7269 -18.6027 8.0115 -12.9210 -0.0789 0.7771 -2.2467 -0.0789 0.7771 -2.2468 5.1589 -2.2102 -7.7968 1.2219 0.6960 1.9616 17.1349 -5.2676 21.1846 -21.0866 23.0281 -2.1582 -16.1427 10.6271 10.7049 -32.4824 0.7773 -15.2444 18.3651 29.4507 21.6319 11.4852 1.8564 6.8087 0.0000 -0.0000 0.0000 -5.1691 -4.7815 7.0572 -12.5688 18.4691 -6.7320 -19.7503 -8.4437 3.2982 -0.0000 -4.2597 -0.0000 
-0.6151 8.5124 0.0849 4.7603 -5.0652 -3.1197 0.0000 -0.0000 0.0000 13.4699 -7.9337 1.4619 13.4422 22.4377 10.5182 15.4943 -9.5830 -7.6364 0.0000 -4.7044 -0.0000 0.0000 -0.0000 0.0000 -0.0636 5.2295 1.2292 -0.0133 10.4591 2.4303 -0.6542 0.6415 6.6253 -17.3146 -5.7794 -31.9385 23.7632 25.3517 3.2094 12.3846 0.0180 -1.7639 35.4808 3.4899 17.6977 -26.1374 32.3580 -28.7353 -18.9742 8.2976 -13.2458 -0.4342 0.3119 -1.5302 -0.4342 0.3119 -1.5302 4.0856 -2.2782 -8.0759 0.0723 0.7062 2.3421 14.7287 -6.3596 22.9577 -21.8114 23.6700 -2.4329 -16.9682 11.0800 9.1073 -32.4824 0.7773 -15.2444 17.2309 28.9252 20.5993 11.1177 1.4970 6.4981 0.0000 -0.0000 0.0000 -4.9979 -5.1994 7.3120 -12.6255 18.7460 -6.7895 -20.3862 -8.7968 3.2294 0.0000 -4.2162 0.0000 
-0.6583 8.5119 0.0928 4.7825 -4.7538 -3.0720 0.0000 -0.0000 0.0000 13.4614 -8.1463 1.6333 13.3802 22.1615 10.5008 15.4210 -9.2629 -7.8472 -0.0000 -4.7404 0.0000 0.0000 -0.0000 0.0000 -0.2848 5.2798 1.1092 -0.4673 10.5640 2.1938 -0.1035 0.6302 5.5371 -3.3101 -4.4212 -37.5160 24.2280 25.7421 3.4021 21.5715 -8.3954 -0.1330 35.4809 3.4899 17.6977 -24.8614 31.9465 -27.5615 -18.5415 7.9640 -12.8675 -0.6875 -0.0504 -1.0439 -0.6875 -0.0505 -1.0439 2.6973 -2.2335 -7.5129 -0.7191 0.6911 2.1313 13.5345 -6.5711 24.9028 -21.9466 23.7886 -2.4850 -17.6764 10.9581 9.2397 -32.4824 0.7773 -15.2444 15.9489 28.2999 19.4346 10.7018 1.0854 6.1474 0.0000 -0.0000 0.0000 -4.8080 -5.5379 7.6077 -12.6564 18.9162 -6.7973 -20.6665 -9.0810 3.0729 -0.0000 -4.1598 -0.0000 
-0.6948 8.5127 0.1058 4.4766 -4.5777 -3.0500 0.0000 -0.0000 0.0000 13.5665 -8.1171 1.8802 13.3150 21.8907 10.4124 15.5741 -9.0411 -8.0935 0.0000 -4.7867 0.0000 0.0000 -0.0000 0.0000 -0.4300 5.2919 0.9604 -0.7721 10.5903 1.8985 0.1527 0.6406 4.6248 4.9446 0.2504 -40.0065 20.0174 22.0646 1.7670 31.3125 -11.6995 -1.4592 35.4808 3.4899 17.6977 -19.2427 29.7966 -22.4156 -16.5977 6.4057 -11.1761 -0.8226 -0.2276 -0.8422 -0.8226 -0.2275 -0.8422 1.1507 -2.0116 -6.1978 -1.0055 0.6460 1.3032 13.1104 -6.0412 27.1029 -21.6955 23.5679 -2.3884 -17.8959 10.1885 10.7703 -32.4824 0.7773 -15.2444 14.7715 27.6956 18.3675 10.2981 0.6810 5.8077 0.0000 -0.0000 0.0000 -4.6162 -5.6957 7.8932 -12.6684 18.9613 -6.8163 -20.6007 -9.2860 2.8751 0.0000 -4.0996 -0.0000 
-0.7230 8.5144 0.1234 3.9751 -4.5673 -2.9506 0.0000 -0.0000 0.0000 13.7142 -7.7640 2.0618 13.2341 21.5428 10.2734 15.9172 -8.8702 -8.3443 -0.0000 -4.8581 -0.0000 0.0000 -0.0000 0.0000 -0.4571 5.2564 0.7791 -0.8429 10.5186 1.5473 0.3205 0.6487 3.9619 8.2341 4.0614 -40.8135 18.1586 20.3429 1.1279 35.4943 -7.4018 -3.6686 35.4808 3.4899 17.6977 -10.0641 24.9389 -14.1172 -13.2356 3.4692 -8.2837 -0.8568 -0.1684 -0.9037 -0.8568 -0.1685 -0.9037 -0.3354 -1.6124 -4.4726 -0.8024 0.5807 0.0063 12.9664 -5.0438 29.5259 -21.2593 23.1820 -2.2229 -17.7730 9.0215 12.7912 -32.4825 0.7773 -15.2444 13.9668 27.2655 17.6396 10.0069 0.3863 5.5634 0.0000 -0.0000 0.0000 -4.4966 -5.6921 8.0489 -12.6845 19.0053 -6.8891 -20.2361 -9.4689 2.7014 -0.0000 -4.0479 -0.0000 
-0.7446 8.5167 0.1439 3.4111 -4.6746 -2.7718 0.0000 -0.0000 0.0000 13.8539 -7.1753 2.1465 13.1409 21.1180 10.1211 16.3693 -8.7179 -8.5858 -0.0000 -4.9380 0.0000 0.0000 -0.0000 0.0000 -0.3577 5.1656 0.5807 -0.6612 10.3348 1.1745 0.5346 0.6486 3.4435 7.6993 5.1065 -40.8252 21.0728 23.0158 2.1530 31.7035 1.0555 -7.8530 35.4809 3.4899 17.6977 -1.2751 18.3649 -6.3657 -9.7037 0.0385 -5.2989 -0.8280 0.0858 -1.1386 -0.8280 0.0859 -1.1386 -1.5648 -1.0920 -2.7606 -0.2561 0.5211 -1.3892 13.1048 -3.7641 31.7758 -20.7206 22.7005 -2.0224 -17.6510 7.8201 14.5889 -32.4825 0.7773 -15.2444 13.7037 27.1218 17.4019 9.9156 0.2933 5.4868 0.0000 -0.0000 0.0000 -4.4515 -5.5816 8.0759 -12.7088 19.0860 -7.0025 -19.7112 -9.6558 2.5701 -0.0000 -4.0101 0.0000 
-0.7621 8.5196 0.1651 2.8575 -4.7817 -2.6097 0.0000 -0.0000 0.0000 13.9575 -6.5624 2.1880 13.0496 20.6722 10.0152 16.8772 -8.5710 -8.8327 0.0000 -4.9994 -0.0000 0.0000 -0.0000 0.0000 -0.1559 5.0189 0.4031 -0.2717 10.0389 0.8516 0.7572 0.6502 2.9177 5.2752 4.6702 -40.5623 25.6819 26.9380 4.0231 22.8294 8.3883 -13.6091 35.4808 3.4899 17.6977 3.2265 14.1053 -2.5069 -7.7411 -2.0279 -3.6684 -0.7724 0.4146 -1.4401 -0.7724 0.4145 -1.4401 -2.4461 -0.5323 -1.3519 0.4049 0.4841 -2.5185 13.7836 -2.3909 33.3949 -20.1127 22.1514 -1.8012 -17.5492 6.9299 15.8378 -32.4824 0.7773 -15.2444 13.8918 27.2247 17.5718 9.9954 0.3746 5.5537 0.0000 -0.0000 0.0000 -4.4307 -5.4310 8.0697 -12.7179 19.1152 -7.0724 -19.1646 -9.8149 2.4371 -0.0000 -3.9815 -0.0000 
